<svg xmlns="http://www.w3.org/2000/svg" xmlns:xlink="http://www.w3.org/1999/xlink" xmlns:lucid="lucid" width="1511" height="721"><g transform="translate(-15.21789193976971 -6.217891939769714)" lucid:page-tab-id="1DPqdD6CoXOA"><path d="M0 0h1532.44v1084.1H0z" fill="#fff"/><path d="M266.22 271.22c0-2.76 2.24-5 5-5h150c2.76 0 5 2.24 5 5v131c0 2.76-2.24 5-5 5h-150c-2.76 0-5-2.24-5-5z" stroke="#000" stroke-width="2" fill="#c1e4f7"/><use xlink:href="#a" transform="matrix(1,0,0,1,274.2178919397697,274.2178919397697) translate(50.5 55.3)"/><use xlink:href="#b" transform="matrix(1,0,0,1,274.2178919397697,274.2178919397697) translate(46.55 76.9)"/><path d="M546.22 591.22c0-2.76 2.24-5 5-5h150c2.76 0 5 2.24 5 5v50c0 2.76-2.24 5-5 5h-150c-2.76 0-5-2.24-5-5z" stroke="#000" stroke-width="2" fill="#fff"/><use xlink:href="#c" transform="matrix(1,0,0,1,554.2178919397697,594.2178919397697) translate(47.575 25.6)"/><path d="M746.22 450.22c0-2.76 2.24-5 5-5h150c2.76 0 5 2.24 5 5v131c0 2.76-2.24 5-5 5h-150c-2.76 0-5-2.24-5-5z" stroke="#000" stroke-width="2" fill="#d1bcd2"/><use xlink:href="#d" transform="matrix(1,0,0,1,754.2178919397697,453.21789193976963) translate(52 55.3)"/><use xlink:href="#e" transform="matrix(1,0,0,1,754.2178919397697,453.21789193976963) translate(56.05 76.9)"/><path d="M744.5 446.38l-.62 1.9-28.4-9.42h6.34zm-87.83-29.12h-6.35l-23.47-7.78.63-1.9z"/><path d="M626.88 409.5l-3.82-1.28h4.24zM745.92 447.9l-21.2 4.6-.42-1.95 17.9-3.88-9.16-10.5v-3.05z"/><use xlink:href="#f" transform="matrix(1,0,0,1,639.0949477704772,417.26066083933625) translate(0 14.4)"/><use xlink:href="#g" transform="matrix(1,0,0,1,639.0949477704772,417.26066083933625) translate(73.95 14.4)"/><path d="M627.22 583.4h-2v-41.72h2zm0-63.32h-2V409.22h2z"/><path d="M627.22 409.24h-2v-1.02h2zM637.26 566.55l-11.04 18.67-11.04-18.67 1.72-1.02 9.32 15.76 9.32-15.77z"/><use xlink:href="#h" transform="matrix(1,0,0,1,539.4928919397697,520.0845586064364) translate(0 14.4)"/><use xlink:href="#g" transform="matrix(1,0,0,1,539.4928919397697,520.0845586064364) translate(153.45000000000002 14.4)"/><path d="M1046.22 271.22c0-2.76 2.24-5 5-5h150c2.76 0 5 2.24 5 5v131c0 2.76-2.24 5-5 5h-150c-2.76 0-5-2.24-5-5z" stroke="#000" stroke-width="2" fill="#d1bcd2"/><use xlink:href="#d" transform="matrix(1,0,0,1,1054.2178919397697,274.2178919397697) translate(52 55.3)"/><use xlink:href="#i" transform="matrix(1,0,0,1,1054.2178919397697,274.2178919397697) translate(20.549999999999997 76.9)"/><path d="M1346.22 391.22c0-2.76 2.24-5 5-5h150c2.76 0 5 2.24 5 5v131c0 2.76-2.24 5-5 5h-150c-2.76 0-5-2.24-5-5z" stroke="#000" stroke-width="2" fill="#d1bcd2"/><use xlink:href="#d" transform="matrix(1,0,0,1,1354.2178919397697,394.2178919397697) translate(52 55.3)"/><use xlink:href="#j" transform="matrix(1,0,0,1,1354.2178919397697,394.2178919397697) translate(19.049999999999997 76.9)"/><path d="M546.22 51.22c0-2.76 2.24-5 5-5h150c2.76 0 5 2.24 5 5v131c0 2.76-2.24 5-5 5h-150c-2.76 0-5-2.24-5-5z" stroke="#000" stroke-width="2" fill="#d1bcd2"/><use xlink:href="#d" transform="matrix(1,0,0,1,554.2178919397697,54.217891939769714) translate(52 55.3)"/><use xlink:href="#k" transform="matrix(1,0,0,1,554.2178919397697,54.217891939769714) translate(38.525 76.9)"/><path d="M1043.7 270.8l-.5 1.93-101.32-26.37v-2.07zM810 209.96v2.07l-102.6-26.7.5-1.94z"/><path d="M707.9 183.4l-.5 1.94-1.06-.27.62-1.9zM1045.22 272.22l-20.85 5.98-.55-1.92 17.6-5.05-12.9-13 1.4-1.4z"/><use xlink:href="#d" transform="matrix(1,0,0,1,809.9840464696873,206.56633411788178) translate(45.955 14.4)"/><use xlink:href="#l" transform="matrix(1,0,0,1,809.9840464696873,206.56633411788178) translate(0.0049999999999954525 36)"/><path d="M1146.22 571.22c0-2.76 2.24-5 5-5h150c2.76 0 5 2.24 5 5v131c0 2.76-2.24 5-5 5h-150c-2.76 0-5-2.24-5-5z" stroke="#000" stroke-width="2" fill="#d1bcd2"/><use xlink:href="#d" transform="matrix(1,0,0,1,1154.2178919397697,574.2178919397697) translate(52 44.5)"/><use xlink:href="#m" transform="matrix(1,0,0,1,1154.2178919397697,574.2178919397697) translate(32.525 66.10000000000001)"/><use xlink:href="#n" transform="matrix(1,0,0,1,1154.2178919397697,574.2178919397697) translate(31.549999999999997 87.70000000000002)"/><path d="M1226.36 563.15l-1.8.84-20.78-44.88h2.2zM1176 454.32h-2.2l-20.74-44.77 1.82-.84z"/><path d="M1154.9 408.73l-1.83.84-.62-1.35h2.2zM1228.4 543.64l-2.18 21.58-17.86-12.3 1.13-1.65 15.07 10.38 1.84-18.2z"/><use xlink:href="#d" transform="matrix(1,0,0,1,1149.9345586064364,454.31789193976977) translate(19.955000000000005 14.4)"/><use xlink:href="#o" transform="matrix(1,0,0,1,1149.9345586064364,454.31789193976977) translate(0.005000000000002558 36)"/><use xlink:href="#p" transform="matrix(1,0,0,1,1149.9345586064364,454.31789193976977) translate(12.480000000000004 57.6)"/><path d="M935.37 437.8l-29.4 7.76-.52-1.93 29.92-7.9zm111.57-29.47l-30.72 8.1v-2.06l30.2-7.98z"/><path d="M1047.65 407.1l1.75.58-2.5.65-.5-1.93.6-.16zM920.6 431.02l-12.86 13.03 17.62 5-.55 1.9-20.86-5.9 15.24-15.44z"/><use xlink:href="#d" transform="matrix(1,0,0,1,935.3707666257296,382.8799855816183) translate(20.430000000000007 14.4)"/><use xlink:href="#q" transform="matrix(1,0,0,1,935.3707666257296,382.8799855816183) translate(0.005000000000002558 36)"/><use xlink:href="#r" transform="matrix(1,0,0,1,935.3707666257296,382.8799855816183) translate(24.480000000000004 57.6)"/><use xlink:href="#s" transform="matrix(1,0,0,1,935.3707666257296,382.8799855816183) translate(21.930000000000007 79.20000000000002)"/><path d="M434.25 337.72h-6.03v-2h6.03zm109.15 0h-27.25v-2h27.25z"/><path d="M428.24 337.72h-1.02v-2h1.02zM545.22 336.72l-18.67 11.04-1.02-1.72 15.76-9.32-15.77-9.32 1.02-1.72z"/><use xlink:href="#t" transform="matrix(1,0,0,1,434.24621938382154,304.3178919397697) translate(25.005000000000003 14.4)"/><use xlink:href="#u" transform="matrix(1,0,0,1,434.24621938382154,304.3178919397697) translate(0.005000000000002558 36)"/><use xlink:href="#v" transform="matrix(1,0,0,1,434.24621938382154,304.3178919397697) translate(18.505000000000003 57.6)"/><path d="M546.22 271.22c0-2.76 2.24-5 5-5h150c2.76 0 5 2.24 5 5v131c0 2.76-2.24 5-5 5h-150c-2.76 0-5-2.24-5-5z" stroke="#000" stroke-width="2" fill="#d1bcd2"/><use xlink:href="#d" transform="matrix(1,0,0,1,554.2178919397697,274.2178919397697) translate(52 55.3)"/><use xlink:href="#w" transform="matrix(1,0,0,1,554.2178919397697,274.2178919397697) translate(16.224999999999994 76.9)"/><path d="M627.22 263.4h-2v-16.86h2zm0-38.46h-2v-35.72h2z"/><path d="M627.22 189.24h-2v-1.02h2zM637.26 246.55l-11.04 18.67-11.04-18.67h2.32l8.72 14.74 8.72-14.76h2.3z"/><use xlink:href="#x" transform="matrix(1,0,0,1,552.4428919397698,224.94364136329006) translate(0 14.4)"/><path d="M946.22 571.22c0-2.76 2.24-5 5-5h150c2.76 0 5 2.24 5 5v131c0 2.76-2.24 5-5 5h-150c-2.76 0-5-2.24-5-5z" stroke="#000" stroke-width="2" fill="#d1bcd2"/><use xlink:href="#d" transform="matrix(1,0,0,1,954.2178919397697,574.2178919397697) translate(52 44.5)"/><use xlink:href="#y" transform="matrix(1,0,0,1,954.2178919397697,574.2178919397697) translate(20.549999999999997 66.10000000000001)"/><use xlink:href="#z" transform="matrix(1,0,0,1,954.2178919397697,574.2178919397697) translate(4.125 87.70000000000002)"/><path d="M1027.85 563.94l-1.83-.8 14.25-33.22h2.18zm66.23-154.4l-14.58 33.98h-2.18l14.92-34.78z"/><path d="M1094.07 409.55l-1.84-.78.23-.55h2.18zM1027.77 561.6l14.77-10.8 1.18 1.6-17.5 12.82-2.8-21.5 2-.27z"/><use xlink:href="#d" transform="matrix(1,0,0,1,1017.4845586064365,443.51789193976975) translate(22.405 14.4)"/><use xlink:href="#A" transform="matrix(1,0,0,1,1017.4845586064365,443.51789193976975) translate(27.905 36)"/><use xlink:href="#B" transform="matrix(1,0,0,1,1017.4845586064365,443.51789193976975) translate(0.005000000000002558 57.6)"/><use xlink:href="#C" transform="matrix(1,0,0,1,1017.4845586064365,443.51789193976975) translate(16.93 79.20000000000002)"/><path d="M346.22 490.72c0-2.76 2.24-5 5-5h150c2.76 0 5 2.24 5 5v50c0 2.76-2.24 5-5 5h-150c-2.76 0-5-2.24-5-5z" stroke="#000" stroke-width="2" fill="#fff"/><use xlink:href="#D" transform="matrix(1,0,0,1,354.2178919397697,493.71789193976963) translate(28.525 25.6)"/><path d="M458.3 473.52L428.26 485l-.7-1.87 30.72-11.75zm167.34-64l-31.5 12.04v-2.14l30.8-11.78z"/><path d="M625.62 409.52l-.5-1.3h3.9zM441.28 468.98l-11.4 14.33 18.06 3.1-.34 1.96-21.38-3.64 13.5-17z"/><use xlink:href="#E" transform="matrix(1,0,0,1,458.29289193976973,414.06789193976965) translate(19.005000000000003 14.4)"/><use xlink:href="#F" transform="matrix(1,0,0,1,458.29289193976973,414.06789193976965) translate(31.455000000000005 36)"/><use xlink:href="#G" transform="matrix(1,0,0,1,458.29289193976973,414.06789193976965) translate(0.0049999999999954525 57.6)"/><use xlink:href="#H" transform="matrix(1,0,0,1,458.29289193976973,414.06789193976965) translate(95.855 57.6)"/><path d="M790.27 337.72h-82.05v-2h82.05zm253.13 0h-81.23v-2h81.23z"/><path d="M708.24 337.72h-1.02v-2h1.02zM1045.22 336.72l-18.67 11.04-1.02-1.72 15.76-9.32-15.77-9.32 1.02-1.72z"/><use xlink:href="#I" transform="matrix(1,0,0,1,790.2678919397697,325.9178919397697) translate(0 14.4)"/><path d="M826.22 51.22c0-2.76 2.24-5 5-5h150c2.76 0 5 2.24 5 5v131c0 2.76-2.24 5-5 5h-150c-2.76 0-5-2.24-5-5z" stroke="#000" stroke-width="2" fill="#666"/><use xlink:href="#J" transform="matrix(1,0,0,1,834.2178919397697,54.217891939769714) translate(36.55 44.5)"/><use xlink:href="#K" transform="matrix(1,0,0,1,834.2178919397697,54.217891939769714) translate(38.525 66.10000000000001)"/><use xlink:href="#L" transform="matrix(1,0,0,1,834.2178919397697,54.217891939769714) translate(54.025 87.70000000000002)"/><path d="M824.22 116.72h-98.5" stroke="#000" stroke-width="2" fill="none"/><path d="M825.22 117.72h-1.03v-2h1.02z"/><path d="M710.45 116.72l14.27-4.64v9.27z" stroke="#000" stroke-width="2" fill="#fff"/><path d="M1344.57 455.46l-.6 1.9-39.93-12.78v-2.1zm-89.53-28.68v2.1l-59.8-19.16.6-1.9z"/><path d="M1345.22 455.67v2.1l-1.28-.4.6-1.92zM1215.4 405.35l-17.84 4.07 12.16 13.68-1.5 1.33-14.4-16.2 21.15-4.83z"/><use xlink:href="#M" transform="matrix(1,0,0,1,1255.0367918513134,414.07738101315056) translate(0.004999999999999005 14.4)"/><use xlink:href="#N" transform="matrix(1,0,0,1,1255.0367918513134,414.07738101315056) translate(3.0299999999999976 36)"/><path d="M1346.22 571.22c0-2.76 2.24-5 5-5h150c2.76 0 5 2.24 5 5v131c0 2.76-2.24 5-5 5h-150c-2.76 0-5-2.24-5-5z" stroke="#000" stroke-width="2" fill="#666"/><use xlink:href="#J" transform="matrix(1,0,0,1,1354.2178919397697,574.2178919397697) translate(36.55 44.5)"/><use xlink:href="#O" transform="matrix(1,0,0,1,1354.2178919397697,574.2178919397697) translate(32.025 66.10000000000001)"/><use xlink:href="#P" transform="matrix(1,0,0,1,1354.2178919397697,574.2178919397697) translate(96.975 66.10000000000001)"/><use xlink:href="#Q" transform="matrix(1,0,0,1,1354.2178919397697,574.2178919397697) translate(31.549999999999997 87.70000000000002)"/><path d="M1344.22 636.72h-18.5" stroke="#000" stroke-width="2" fill="none"/><path d="M1345.22 637.72h-1.03v-2h1.02z"/><path d="M1310.45 636.72l14.27-4.64v9.27z" stroke="#000" stroke-width="2" fill="#fff"/><path d="M1046.22 51.22c0-2.76 2.24-5 5-5h150c2.76 0 5 2.24 5 5v131c0 2.76-2.24 5-5 5h-150c-2.76 0-5-2.24-5-5z" stroke="#000" stroke-width="2" fill="#666"/><g><use xlink:href="#J" transform="matrix(1,0,0,1,1054.2178919397697,54.217891939769714) translate(36.55 55.3)"/><use xlink:href="#R" transform="matrix(1,0,0,1,1054.2178919397697,54.217891939769714) translate(38.525 76.9)"/></g><path d="M1126.22 189.22v57.5" stroke="#000" stroke-width="2" fill="none"/><path d="M1127.22 189.24h-2v-1.02h2z"/><path d="M1126.22 261.98l-4.64-14.26h9.27z" stroke="#000" stroke-width="2" fill="#fff"/><path d="M66.22 294.45c0-2.76 2.24-5 5-5h110c2.76 0 5 2.24 5 5v71c0 2.77-2.24 5-5 5h-110c-2.76 0-5-2.23-5-5z" stroke="#000" stroke-width="2" fill="#d1bcd2"/><g><use xlink:href="#S" transform="matrix(1,0,0,1,74.21789193976971,297.45473404503275) translate(26.574999999999996 25.299999999999997)"/><use xlink:href="#v" transform="matrix(1,0,0,1,74.21789193976971,297.45473404503275) translate(29.549999999999997 46.9)"/></g><path d="M66.22 382.1c0-2.78 2.24-5 5-5h110c2.76 0 5 2.22 5 5v71c0 2.75-2.24 5-5 5h-110c-2.76 0-5-2.25-5-5z" stroke="#000" stroke-width="2" fill="#c1e4f7"/><g><use xlink:href="#T" transform="matrix(1,0,0,1,74.21789193976971,385.08631299240125) translate(1.5249999999999986 25.299999999999997)"/><use xlink:href="#U" transform="matrix(1,0,0,1,74.21789193976971,385.08631299240125) translate(43.475 25.299999999999997)"/><use xlink:href="#V" transform="matrix(1,0,0,1,74.21789193976971,385.08631299240125) translate(53.475 25.299999999999997)"/><use xlink:href="#W" transform="matrix(1,0,0,1,74.21789193976971,385.08631299240125) translate(29.549999999999997 46.9)"/></g><path d="M66.22 469.72c0-2.76 2.24-5 5-5h110c2.76 0 5 2.24 5 5v71c0 2.76-2.24 5-5 5h-110c-2.76 0-5-2.24-5-5z" stroke="#000" stroke-width="2" fill="#666"/><g><use xlink:href="#X" transform="matrix(1,0,0,1,74.21789193976971,472.7178919397697) translate(26.749999999999996 14.500000000000002)"/><use xlink:href="#Y" transform="matrix(1,0,0,1,74.21789193976971,472.7178919397697) translate(4.524999999999999 36.1)"/><use xlink:href="#Z" transform="matrix(1,0,0,1,74.21789193976971,472.7178919397697) translate(29.549999999999997 57.7)"/></g><path d="M89.3 227.22H27.2v-2H89.3zm153.1 0h-61.26v-2h61.26z"/><path d="M244.22 226.22l-18.67 11.04-1.02-1.72 15.76-9.32-15.77-9.32 1.02-1.72zM27.24 227.22h-1.02v-2h1.02z"/><g><use xlink:href="#aa" transform="matrix(1,0,0,1,89.2928919397697,215.4178919397697) translate(0 14.4)"/></g><path d="M71.3 267.22H27.2v-2H71.3zm154.42 0h-26.58v-2h26.58z"/><path d="M240.98 266.22l-14.26 4.63v-9.27z" fill="#fff"/><path d="M244.22 266.22l-18.5 6v-12zm-16.5 3.26l10.03-3.26-10.03-3.26zM27.24 267.22h-1.02v-2h1.02z"/><g><use xlink:href="#ab" transform="matrix(1,0,0,1,71.2928919397697,255.41789193976967) translate(0 14.4)"/></g><path d="M66.22 71.22c0-2.76 2.24-5 5-5h110c2.76 0 5 2.24 5 5v71c0 2.76-2.24 5-5 5h-110c-2.76 0-5-2.24-5-5z" stroke="#000" stroke-width="2" fill="#fff"/><g><use xlink:href="#t" transform="matrix(1,0,0,1,74.21789193976971,74.21789193976971) translate(36.05 25.299999999999997)"/><use xlink:href="#v" transform="matrix(1,0,0,1,74.21789193976971,74.21789193976971) translate(29.549999999999997 46.9)"/></g><path d="M66.22 171.22c0-2.76 2.24-5 5-5h110c2.76 0 5 2.24 5 5v30c0 2.76-2.24 5-5 5h-110c-2.76 0-5-2.24-5-5z" stroke="#000" stroke-width="2" fill="#fff"/><g><use xlink:href="#c" transform="matrix(1,0,0,1,74.21789193976971,174.21789193976971) translate(27.575 15.6)"/></g><path d="M86.22 26.22h80v40h-80z" stroke="#000" stroke-opacity="0" stroke-width="2" fill="#fff" fill-opacity="0"/><g><use xlink:href="#ac" transform="matrix(1,0,0,1,91.21789193976971,31.217891939769714) translate(18.525 18.15)"/></g><defs><path d="M135-143c-3-34-86-38-87 0 15 53 115 12 119 90S17 21 10-45l28-5c4 36 97 45 98 0-10-56-113-15-118-90-4-57 82-63 122-42 12 7 21 19 24 35" id="ad"/><path d="M100-194c62-1 85 37 85 99 1 63-27 99-86 99S16-35 15-95c0-66 28-99 85-99zM99-20c44 1 53-31 53-75 0-43-8-75-51-75s-53 32-53 75 10 74 51 75" id="ae"/><path d="M141-36C126-15 110 5 73 4 37 3 15-17 15-53c-1-64 63-63 125-63 3-35-9-54-41-54-24 1-41 7-42 31l-33-3c5-37 33-52 76-52 45 0 72 20 72 64v82c-1 20 7 32 28 27v20c-31 9-61-2-59-35zM48-53c0 20 12 33 32 33 41-3 63-29 60-74-43 2-92-5-92 41" id="af"/><path d="M33-154v-36h34v36H33zM33 0v-36h34V0H33" id="ag"/><g id="a"><use transform="matrix(0.05,0,0,0.05,0,0)" xlink:href="#ad"/><use transform="matrix(0.05,0,0,0.05,9,0)" xlink:href="#ae"/><use transform="matrix(0.05,0,0,0.05,19,0)" xlink:href="#ad"/><use transform="matrix(0.05,0,0,0.05,28,0)" xlink:href="#af"/><use transform="matrix(0.05,0,0,0.05,38,0)" xlink:href="#ag"/></g><path d="M233-177c-1 41-23 64-60 70L243 0h-38l-65-103H63V0H30v-248c88 3 205-21 203 71zM63-129c60-2 137 13 137-47 0-61-80-42-137-45v92" id="ah"/><path d="M100-194c63 0 86 42 84 106H49c0 40 14 67 53 68 26 1 43-12 49-29l28 8c-11 28-37 45-77 45C44 4 14-33 15-96c1-61 26-98 85-98zm52 81c6-60-76-77-97-28-3 7-6 17-6 28h103" id="ai"/><path d="M84 4C-5 8 30-112 23-190h32v120c0 31 7 50 39 49 72-2 45-101 50-169h31l1 190h-30c-1-10 1-25-2-33-11 22-28 36-60 37" id="aj"/><path d="M24 0v-261h32V0H24" id="ak"/><path d="M59-47c-2 24 18 29 38 22v24C64 9 27 4 27-40v-127H5v-23h24l9-43h21v43h35v23H59v120" id="al"/><g id="b"><use transform="matrix(0.05,0,0,0.05,0,0)" xlink:href="#ah"/><use transform="matrix(0.05,0,0,0.05,12.950000000000001,0)" xlink:href="#ai"/><use transform="matrix(0.05,0,0,0.05,22.950000000000003,0)" xlink:href="#ad"/><use transform="matrix(0.05,0,0,0.05,31.950000000000003,0)" xlink:href="#aj"/><use transform="matrix(0.05,0,0,0.05,41.95,0)" xlink:href="#ak"/><use transform="matrix(0.05,0,0,0.05,45.900000000000006,0)" xlink:href="#al"/></g><path d="M30 0v-248h33v221h125V0H30" id="am"/><path d="M24-231v-30h32v30H24zM24 0v-190h32V0H24" id="an"/><path d="M114-163C36-179 61-72 57 0H25l-1-190h30c1 12-1 29 2 39 6-27 23-49 58-41v29" id="ao"/><g id="c"><use transform="matrix(0.05,0,0,0.05,0,0)" xlink:href="#am"/><use transform="matrix(0.05,0,0,0.05,10,0)" xlink:href="#an"/><use transform="matrix(0.05,0,0,0.05,13.949999999999998,0)" xlink:href="#al"/><use transform="matrix(0.05,0,0,0.05,18.95,0)" xlink:href="#ai"/><use transform="matrix(0.05,0,0,0.05,28.950000000000003,0)" xlink:href="#ao"/><use transform="matrix(0.05,0,0,0.05,34.9,0)" xlink:href="#af"/><use transform="matrix(0.05,0,0,0.05,44.9,0)" xlink:href="#ak"/></g><path d="M145-31C134-9 116 4 85 4 32 4 16-35 15-94c0-59 17-99 70-100 32-1 48 14 60 33 0-11-1-24 2-32h30l-1 268h-32zM93-21c41 0 51-33 51-76s-8-73-50-73c-40 0-46 35-46 75s5 74 45 74" id="ap"/><path d="M85-194c31 0 48 13 60 33l-1-100h32l1 261h-30c-2-10 0-23-3-31C134-8 116 4 85 4 32 4 16-35 15-94c0-66 23-100 70-100zm9 24c-40 0-46 34-46 75 0 40 6 74 45 74 42 0 51-32 51-76 0-42-9-74-50-73" id="aq"/><g id="d"><use transform="matrix(0.05,0,0,0.05,0,0)" xlink:href="#ap"/><use transform="matrix(0.05,0,0,0.05,10,0)" xlink:href="#aj"/><use transform="matrix(0.05,0,0,0.05,20,0)" xlink:href="#aq"/><use transform="matrix(0.05,0,0,0.05,30,0)" xlink:href="#al"/><use transform="matrix(0.05,0,0,0.05,35,0)" xlink:href="#ag"/></g><path d="M232-93c-1 65-40 97-104 97C67 4 28-28 28-90v-158h33c8 89-33 224 67 224 102 0 64-133 71-224h33v155" id="ar"/><path d="M117-194c89-4 53 116 60 194h-32v-121c0-31-8-49-39-48C34-167 62-67 57 0H25l-1-190h30c1 10-1 24 2 32 11-22 29-35 61-36" id="as"/><g id="e"><use transform="matrix(0.05,0,0,0.05,0,0)" xlink:href="#ar"/><use transform="matrix(0.05,0,0,0.05,12.950000000000001,0)" xlink:href="#as"/><use transform="matrix(0.05,0,0,0.05,22.950000000000003,0)" xlink:href="#an"/><use transform="matrix(0.05,0,0,0.05,26.900000000000002,0)" xlink:href="#al"/></g><g id="f"><use transform="matrix(0.05,0,0,0.05,0,0)" xlink:href="#ap"/><use transform="matrix(0.05,0,0,0.05,10,0)" xlink:href="#aj"/><use transform="matrix(0.05,0,0,0.05,20,0)" xlink:href="#aq"/><use transform="matrix(0.05,0,0,0.05,30,0)" xlink:href="#al"/><use transform="matrix(0.05,0,0,0.05,35,0)" xlink:href="#ag"/><use transform="matrix(0.05,0,0,0.05,40,0)" xlink:href="#aj"/><use transform="matrix(0.05,0,0,0.05,50,0)" xlink:href="#as"/><use transform="matrix(0.05,0,0,0.05,60,0)" xlink:href="#an"/><use transform="matrix(0.05,0,0,0.05,63.95,0)" xlink:href="#al"/></g><path d="M26 75v-336h71v23H56V52h41v23H26" id="at"/><path d="M27 0v-27h64v-190l-56 39v-29l58-41h29v221h61V0H27" id="au"/><path d="M3 75V52h41v-290H3v-23h71V75H3" id="av"/><g id="g"><use transform="matrix(0.05,0,0,0.05,0,0)" xlink:href="#at"/><use transform="matrix(0.05,0,0,0.05,5,0)" xlink:href="#au"/><use transform="matrix(0.05,0,0,0.05,15,0)" xlink:href="#av"/></g><path d="M210-169c-67 3-38 105-44 169h-31v-121c0-29-5-50-35-48C34-165 62-65 56 0H25l-1-190h30c1 10-1 24 2 32 10-44 99-50 107 0 11-21 27-35 58-36 85-2 47 119 55 194h-31v-121c0-29-5-49-35-48" id="aw"/><path d="M96-169c-40 0-48 33-48 73s9 75 48 75c24 0 41-14 43-38l32 2c-6 37-31 61-74 61-59 0-76-41-82-99-10-93 101-131 147-64 4 7 5 14 7 22l-32 3c-4-21-16-35-41-35" id="ax"/><path d="M137 0h-34L2-248h35l83 218 83-218h36" id="ay"/><g id="h"><use transform="matrix(0.05,0,0,0.05,0,0)" xlink:href="#ap"/><use transform="matrix(0.05,0,0,0.05,10,0)" xlink:href="#aj"/><use transform="matrix(0.05,0,0,0.05,20,0)" xlink:href="#aq"/><use transform="matrix(0.05,0,0,0.05,30,0)" xlink:href="#al"/><use transform="matrix(0.05,0,0,0.05,35,0)" xlink:href="#ag"/><use transform="matrix(0.05,0,0,0.05,40,0)" xlink:href="#as"/><use transform="matrix(0.05,0,0,0.05,50,0)" xlink:href="#aj"/><use transform="matrix(0.05,0,0,0.05,60,0)" xlink:href="#aw"/><use transform="matrix(0.05,0,0,0.05,74.95,0)" xlink:href="#ai"/><use transform="matrix(0.05,0,0,0.05,84.95,0)" xlink:href="#ao"/><use transform="matrix(0.05,0,0,0.05,90.9,0)" xlink:href="#an"/><use transform="matrix(0.05,0,0,0.05,94.85000000000001,0)" xlink:href="#ax"/><use transform="matrix(0.05,0,0,0.05,103.85000000000001,0)" xlink:href="#ay"/><use transform="matrix(0.05,0,0,0.05,114.5,0)" xlink:href="#af"/><use transform="matrix(0.05,0,0,0.05,124.5,0)" xlink:href="#ak"/><use transform="matrix(0.05,0,0,0.05,128.45000000000002,0)" xlink:href="#aj"/><use transform="matrix(0.05,0,0,0.05,138.45000000000002,0)" xlink:href="#ai"/></g><path d="M140-251c81 0 123 46 123 126C263-53 228-8 163 1c7 30 30 48 69 40v23c-55 16-95-15-103-61C56-3 17-48 17-125c0-80 42-126 123-126zm0 227c63 0 89-41 89-101s-29-99-89-99c-61 0-89 39-89 99S79-25 140-24" id="az"/><path d="M179-190L93 31C79 59 56 82 12 73V49c39 6 53-20 64-50L1-190h34L92-34l54-156h33" id="aA"/><path d="M194 0L95-120 63-95V0H30v-248h33v124l119-124h40L117-140 236 0h-42" id="aB"/><g id="i"><use transform="matrix(0.05,0,0,0.05,0,0)" xlink:href="#az"/><use transform="matrix(0.05,0,0,0.05,14,0)" xlink:href="#aj"/><use transform="matrix(0.05,0,0,0.05,24,0)" xlink:href="#af"/><use transform="matrix(0.05,0,0,0.05,34,0)" xlink:href="#as"/><use transform="matrix(0.05,0,0,0.05,44,0)" xlink:href="#al"/><use transform="matrix(0.05,0,0,0.05,49,0)" xlink:href="#an"/><use transform="matrix(0.05,0,0,0.05,52.95,0)" xlink:href="#al"/><use transform="matrix(0.05,0,0,0.05,57.95,0)" xlink:href="#aA"/><use transform="matrix(0.05,0,0,0.05,66.95,0)" xlink:href="#aB"/><use transform="matrix(0.05,0,0,0.05,78.95,0)" xlink:href="#an"/><use transform="matrix(0.05,0,0,0.05,82.9,0)" xlink:href="#as"/><use transform="matrix(0.05,0,0,0.05,92.9,0)" xlink:href="#aq"/></g><path d="M127-220V0H93v-220H8v-28h204v28h-85" id="aC"/><path d="M115-194c55 1 70 41 70 98S169 2 115 4C84 4 66-9 55-30l1 105H24l-1-265h31l2 30c10-21 28-34 59-34zm-8 174c40 0 45-34 45-75s-6-73-45-74c-42 0-51 32-51 76 0 43 10 73 51 73" id="aD"/><g id="j"><use transform="matrix(0.05,0,0,0.05,0,0)" xlink:href="#az"/><use transform="matrix(0.05,0,0,0.05,14,0)" xlink:href="#aj"/><use transform="matrix(0.05,0,0,0.05,24,0)" xlink:href="#af"/><use transform="matrix(0.05,0,0,0.05,34,0)" xlink:href="#as"/><use transform="matrix(0.05,0,0,0.05,44,0)" xlink:href="#al"/><use transform="matrix(0.05,0,0,0.05,49,0)" xlink:href="#an"/><use transform="matrix(0.05,0,0,0.05,52.95,0)" xlink:href="#al"/><use transform="matrix(0.05,0,0,0.05,57.95,0)" xlink:href="#aA"/><use transform="matrix(0.05,0,0,0.05,66.95,0)" xlink:href="#aC"/><use transform="matrix(0.05,0,0,0.05,76.9,0)" xlink:href="#aA"/><use transform="matrix(0.05,0,0,0.05,85.9,0)" xlink:href="#aD"/><use transform="matrix(0.05,0,0,0.05,95.9,0)" xlink:href="#ai"/></g><g id="k"><use transform="matrix(0.05,0,0,0.05,0,0)" xlink:href="#az"/><use transform="matrix(0.05,0,0,0.05,14,0)" xlink:href="#aj"/><use transform="matrix(0.05,0,0,0.05,24,0)" xlink:href="#af"/><use transform="matrix(0.05,0,0,0.05,34,0)" xlink:href="#as"/><use transform="matrix(0.05,0,0,0.05,44,0)" xlink:href="#al"/><use transform="matrix(0.05,0,0,0.05,49,0)" xlink:href="#an"/><use transform="matrix(0.05,0,0,0.05,52.95,0)" xlink:href="#al"/><use transform="matrix(0.05,0,0,0.05,57.95,0)" xlink:href="#aA"/></g><path d="M106-169C34-169 62-67 57 0H25v-261h32l-1 103c12-21 28-36 61-36 89 0 53 116 60 194h-32v-121c2-32-8-49-39-48" id="aE"/><g id="l"><use transform="matrix(0.05,0,0,0.05,0,0)" xlink:href="#aE"/><use transform="matrix(0.05,0,0,0.05,10,0)" xlink:href="#af"/><use transform="matrix(0.05,0,0,0.05,20,0)" xlink:href="#ad"/><use transform="matrix(0.05,0,0,0.05,29,0)" xlink:href="#az"/><use transform="matrix(0.05,0,0,0.05,43,0)" xlink:href="#aj"/><use transform="matrix(0.05,0,0,0.05,53,0)" xlink:href="#af"/><use transform="matrix(0.05,0,0,0.05,63,0)" xlink:href="#as"/><use transform="matrix(0.05,0,0,0.05,73,0)" xlink:href="#al"/><use transform="matrix(0.05,0,0,0.05,78,0)" xlink:href="#an"/><use transform="matrix(0.05,0,0,0.05,81.95,0)" xlink:href="#al"/><use transform="matrix(0.05,0,0,0.05,86.95,0)" xlink:href="#aA"/><use transform="matrix(0.05,0,0,0.05,95.95,0)" xlink:href="#aB"/><use transform="matrix(0.05,0,0,0.05,107.95,0)" xlink:href="#an"/><use transform="matrix(0.05,0,0,0.05,111.9,0)" xlink:href="#as"/><use transform="matrix(0.05,0,0,0.05,121.9,0)" xlink:href="#aq"/></g><path d="M185-189c-5-48-123-54-124 2 14 75 158 14 163 119 3 78-121 87-175 55-17-10-28-26-33-46l33-7c5 56 141 63 141-1 0-78-155-14-162-118-5-82 145-84 179-34 5 7 8 16 11 25" id="aF"/><path d="M140-251c81 0 123 46 123 126C263-46 219 4 140 4 59 4 17-45 17-125s42-126 123-126zm0 227c63 0 89-41 89-101s-29-99-89-99c-61 0-89 39-89 99S79-25 140-24" id="aG"/><path d="M101-234c-31-9-42 10-38 44h38v23H63V0H32v-167H5v-23h27c-7-52 17-82 69-68v24" id="aH"/><g id="m"><use transform="matrix(0.05,0,0,0.05,0,0)" xlink:href="#aF"/><use transform="matrix(0.05,0,0,0.05,12,0)" xlink:href="#aA"/><use transform="matrix(0.05,0,0,0.05,21,0)" xlink:href="#ad"/><use transform="matrix(0.05,0,0,0.05,30,0)" xlink:href="#al"/><use transform="matrix(0.05,0,0,0.05,35,0)" xlink:href="#ai"/><use transform="matrix(0.05,0,0,0.05,45,0)" xlink:href="#aw"/><use transform="matrix(0.05,0,0,0.05,59.95,0)" xlink:href="#aG"/><use transform="matrix(0.05,0,0,0.05,73.95,0)" xlink:href="#aH"/></g><g id="n"><use transform="matrix(0.05,0,0,0.05,0,0)" xlink:href="#az"/><use transform="matrix(0.05,0,0,0.05,14,0)" xlink:href="#aj"/><use transform="matrix(0.05,0,0,0.05,24,0)" xlink:href="#af"/><use transform="matrix(0.05,0,0,0.05,34,0)" xlink:href="#as"/><use transform="matrix(0.05,0,0,0.05,44,0)" xlink:href="#al"/><use transform="matrix(0.05,0,0,0.05,49,0)" xlink:href="#an"/><use transform="matrix(0.05,0,0,0.05,52.95,0)" xlink:href="#al"/><use transform="matrix(0.05,0,0,0.05,57.95,0)" xlink:href="#an"/><use transform="matrix(0.05,0,0,0.05,61.900000000000006,0)" xlink:href="#ai"/><use transform="matrix(0.05,0,0,0.05,71.9,0)" xlink:href="#ad"/></g><g id="o"><use transform="matrix(0.05,0,0,0.05,0,0)" xlink:href="#an"/><use transform="matrix(0.05,0,0,0.05,3.95,0)" xlink:href="#ad"/><use transform="matrix(0.05,0,0,0.05,12.949999999999998,0)" xlink:href="#az"/><use transform="matrix(0.05,0,0,0.05,26.950000000000003,0)" xlink:href="#aj"/><use transform="matrix(0.05,0,0,0.05,36.95,0)" xlink:href="#af"/><use transform="matrix(0.05,0,0,0.05,46.95,0)" xlink:href="#as"/><use transform="matrix(0.05,0,0,0.05,56.95,0)" xlink:href="#al"/><use transform="matrix(0.05,0,0,0.05,61.95,0)" xlink:href="#an"/><use transform="matrix(0.05,0,0,0.05,65.9,0)" xlink:href="#al"/><use transform="matrix(0.05,0,0,0.05,70.9,0)" xlink:href="#aA"/></g><g id="p"><use transform="matrix(0.05,0,0,0.05,0,0)" xlink:href="#aB"/><use transform="matrix(0.05,0,0,0.05,12,0)" xlink:href="#an"/><use transform="matrix(0.05,0,0,0.05,15.949999999999998,0)" xlink:href="#as"/><use transform="matrix(0.05,0,0,0.05,25.950000000000003,0)" xlink:href="#aq"/><use transform="matrix(0.05,0,0,0.05,35.95,0)" xlink:href="#aG"/><use transform="matrix(0.05,0,0,0.05,49.95,0)" xlink:href="#aH"/></g><path d="M115-194c53 0 69 39 70 98 0 66-23 100-70 100C84 3 66-7 56-30L54 0H23l1-261h32v101c10-23 28-34 59-34zm-8 174c40 0 45-34 45-75 0-40-5-75-45-74-42 0-51 32-51 76 0 43 10 73 51 73" id="aI"/><g id="q"><use transform="matrix(0.05,0,0,0.05,0,0)" xlink:href="#af"/><use transform="matrix(0.05,0,0,0.05,10,0)" xlink:href="#aD"/><use transform="matrix(0.05,0,0,0.05,20,0)" xlink:href="#aD"/><use transform="matrix(0.05,0,0,0.05,30,0)" xlink:href="#ak"/><use transform="matrix(0.05,0,0,0.05,33.95,0)" xlink:href="#an"/><use transform="matrix(0.05,0,0,0.05,37.900000000000006,0)" xlink:href="#ax"/><use transform="matrix(0.05,0,0,0.05,46.900000000000006,0)" xlink:href="#af"/><use transform="matrix(0.05,0,0,0.05,56.900000000000006,0)" xlink:href="#aI"/><use transform="matrix(0.05,0,0,0.05,66.9,0)" xlink:href="#ak"/><use transform="matrix(0.05,0,0,0.05,70.85000000000001,0)" xlink:href="#ai"/></g><g id="r"><use transform="matrix(0.05,0,0,0.05,0,0)" xlink:href="#ar"/><use transform="matrix(0.05,0,0,0.05,12.950000000000001,0)" xlink:href="#as"/><use transform="matrix(0.05,0,0,0.05,22.950000000000003,0)" xlink:href="#an"/><use transform="matrix(0.05,0,0,0.05,26.900000000000002,0)" xlink:href="#al"/></g><path d="M33 0v-38h34V0H33" id="aJ"/><path d="M80-196l47-18 7 23-49 13 32 44-20 13-27-46-27 45-21-12 33-44-49-13 8-23 47 19-2-53h23" id="aK"/><g id="s"><use transform="matrix(0.05,0,0,0.05,0,0)" xlink:href="#at"/><use transform="matrix(0.05,0,0,0.05,5,0)" xlink:href="#au"/><use transform="matrix(0.05,0,0,0.05,15,0)" xlink:href="#aJ"/><use transform="matrix(0.05,0,0,0.05,20,0)" xlink:href="#aJ"/><use transform="matrix(0.05,0,0,0.05,25,0)" xlink:href="#aK"/><use transform="matrix(0.05,0,0,0.05,32,0)" xlink:href="#av"/></g><path d="M206 0h-36l-40-164L89 0H53L-1-190h32L70-26l43-164h34l41 164 42-164h31" id="aL"/><g id="t"><use transform="matrix(0.05,0,0,0.05,0,0)" xlink:href="#ae"/><use transform="matrix(0.05,0,0,0.05,10,0)" xlink:href="#aL"/><use transform="matrix(0.05,0,0,0.05,22.950000000000003,0)" xlink:href="#ak"/><use transform="matrix(0.05,0,0,0.05,26.900000000000002,0)" xlink:href="#ag"/></g><path d="M108 0H70L1-190h34L89-25l56-165h34" id="aM"/><g id="u"><use transform="matrix(0.05,0,0,0.05,0,0)" xlink:href="#ai"/><use transform="matrix(0.05,0,0,0.05,10,0)" xlink:href="#ap"/><use transform="matrix(0.05,0,0,0.05,20,0)" xlink:href="#aj"/><use transform="matrix(0.05,0,0,0.05,30,0)" xlink:href="#an"/><use transform="matrix(0.05,0,0,0.05,33.95,0)" xlink:href="#aM"/><use transform="matrix(0.05,0,0,0.05,42.95,0)" xlink:href="#af"/><use transform="matrix(0.05,0,0,0.05,52.95,0)" xlink:href="#ak"/><use transform="matrix(0.05,0,0,0.05,56.900000000000006,0)" xlink:href="#ai"/><use transform="matrix(0.05,0,0,0.05,66.9,0)" xlink:href="#as"/><use transform="matrix(0.05,0,0,0.05,76.9,0)" xlink:href="#al"/></g><path d="M212-179c-10-28-35-45-73-45-59 0-87 40-87 99 0 60 29 101 89 101 43 0 62-24 78-52l27 14C228-24 195 4 139 4 59 4 22-46 18-125c-6-104 99-153 187-111 19 9 31 26 39 46" id="aN"/><g id="v"><use transform="matrix(0.05,0,0,0.05,0,0)" xlink:href="#aN"/><use transform="matrix(0.05,0,0,0.05,12.950000000000001,0)" xlink:href="#ak"/><use transform="matrix(0.05,0,0,0.05,16.900000000000002,0)" xlink:href="#af"/><use transform="matrix(0.05,0,0,0.05,26.900000000000002,0)" xlink:href="#ad"/><use transform="matrix(0.05,0,0,0.05,35.900000000000006,0)" xlink:href="#ad"/></g><g id="w"><use transform="matrix(0.05,0,0,0.05,0,0)" xlink:href="#az"/><use transform="matrix(0.05,0,0,0.05,14,0)" xlink:href="#aj"/><use transform="matrix(0.05,0,0,0.05,24,0)" xlink:href="#af"/><use transform="matrix(0.05,0,0,0.05,34,0)" xlink:href="#as"/><use transform="matrix(0.05,0,0,0.05,44,0)" xlink:href="#al"/><use transform="matrix(0.05,0,0,0.05,49,0)" xlink:href="#an"/><use transform="matrix(0.05,0,0,0.05,52.95,0)" xlink:href="#al"/><use transform="matrix(0.05,0,0,0.05,57.95,0)" xlink:href="#aA"/><use transform="matrix(0.05,0,0,0.05,66.95,0)" xlink:href="#ay"/><use transform="matrix(0.05,0,0,0.05,77.60000000000001,0)" xlink:href="#af"/><use transform="matrix(0.05,0,0,0.05,87.60000000000001,0)" xlink:href="#ak"/><use transform="matrix(0.05,0,0,0.05,91.55000000000001,0)" xlink:href="#aj"/><use transform="matrix(0.05,0,0,0.05,101.55000000000001,0)" xlink:href="#ai"/></g><g id="x"><use transform="matrix(0.05,0,0,0.05,0,0)" xlink:href="#ap"/><use transform="matrix(0.05,0,0,0.05,10,0)" xlink:href="#aj"/><use transform="matrix(0.05,0,0,0.05,20,0)" xlink:href="#aq"/><use transform="matrix(0.05,0,0,0.05,30,0)" xlink:href="#al"/><use transform="matrix(0.05,0,0,0.05,35,0)" xlink:href="#ag"/><use transform="matrix(0.05,0,0,0.05,40,0)" xlink:href="#ap"/><use transform="matrix(0.05,0,0,0.05,50,0)" xlink:href="#aj"/><use transform="matrix(0.05,0,0,0.05,60,0)" xlink:href="#af"/><use transform="matrix(0.05,0,0,0.05,70,0)" xlink:href="#as"/><use transform="matrix(0.05,0,0,0.05,80,0)" xlink:href="#al"/><use transform="matrix(0.05,0,0,0.05,85,0)" xlink:href="#an"/><use transform="matrix(0.05,0,0,0.05,88.95,0)" xlink:href="#al"/><use transform="matrix(0.05,0,0,0.05,93.95,0)" xlink:href="#aA"/><use transform="matrix(0.05,0,0,0.05,102.95,0)" xlink:href="#ay"/><use transform="matrix(0.05,0,0,0.05,113.60000000000001,0)" xlink:href="#af"/><use transform="matrix(0.05,0,0,0.05,123.60000000000001,0)" xlink:href="#ak"/><use transform="matrix(0.05,0,0,0.05,127.55000000000001,0)" xlink:href="#aj"/><use transform="matrix(0.05,0,0,0.05,137.55,0)" xlink:href="#ai"/></g><g id="y"><use transform="matrix(0.05,0,0,0.05,0,0)" xlink:href="#az"/><use transform="matrix(0.05,0,0,0.05,14,0)" xlink:href="#aj"/><use transform="matrix(0.05,0,0,0.05,24,0)" xlink:href="#af"/><use transform="matrix(0.05,0,0,0.05,34,0)" xlink:href="#as"/><use transform="matrix(0.05,0,0,0.05,44,0)" xlink:href="#al"/><use transform="matrix(0.05,0,0,0.05,49,0)" xlink:href="#an"/><use transform="matrix(0.05,0,0,0.05,52.95,0)" xlink:href="#al"/><use transform="matrix(0.05,0,0,0.05,57.95,0)" xlink:href="#aA"/><use transform="matrix(0.05,0,0,0.05,66.95,0)" xlink:href="#aB"/><use transform="matrix(0.05,0,0,0.05,78.95,0)" xlink:href="#an"/><use transform="matrix(0.05,0,0,0.05,82.9,0)" xlink:href="#as"/><use transform="matrix(0.05,0,0,0.05,92.9,0)" xlink:href="#aq"/></g><path d="M30-248c118-7 216 8 213 122C240-48 200 0 122 0H30v-248zM63-27c89 8 146-16 146-99s-60-101-146-95v194" id="aO"/><g id="z"><use transform="matrix(0.05,0,0,0.05,0,0)" xlink:href="#aO"/><use transform="matrix(0.05,0,0,0.05,12.950000000000001,0)" xlink:href="#an"/><use transform="matrix(0.05,0,0,0.05,16.900000000000002,0)" xlink:href="#aw"/><use transform="matrix(0.05,0,0,0.05,31.85,0)" xlink:href="#ai"/><use transform="matrix(0.05,0,0,0.05,41.85,0)" xlink:href="#as"/><use transform="matrix(0.05,0,0,0.05,51.85,0)" xlink:href="#ad"/><use transform="matrix(0.05,0,0,0.05,60.85,0)" xlink:href="#an"/><use transform="matrix(0.05,0,0,0.05,64.8,0)" xlink:href="#ae"/><use transform="matrix(0.05,0,0,0.05,74.8,0)" xlink:href="#as"/><use transform="matrix(0.05,0,0,0.05,84.8,0)" xlink:href="#ay"/><use transform="matrix(0.05,0,0,0.05,95.8,0)" xlink:href="#ai"/><use transform="matrix(0.05,0,0,0.05,105.80000000000001,0)" xlink:href="#ax"/><use transform="matrix(0.05,0,0,0.05,114.80000000000001,0)" xlink:href="#al"/><use transform="matrix(0.05,0,0,0.05,119.80000000000001,0)" xlink:href="#ae"/><use transform="matrix(0.05,0,0,0.05,129.8,0)" xlink:href="#ao"/></g><g id="A"><use transform="matrix(0.05,0,0,0.05,0,0)" xlink:href="#aE"/><use transform="matrix(0.05,0,0,0.05,10,0)" xlink:href="#af"/><use transform="matrix(0.05,0,0,0.05,20,0)" xlink:href="#ad"/></g><g id="B"><use transform="matrix(0.05,0,0,0.05,0,0)" xlink:href="#aO"/><use transform="matrix(0.05,0,0,0.05,12.950000000000001,0)" xlink:href="#an"/><use transform="matrix(0.05,0,0,0.05,16.900000000000002,0)" xlink:href="#aw"/><use transform="matrix(0.05,0,0,0.05,31.85,0)" xlink:href="#ai"/><use transform="matrix(0.05,0,0,0.05,41.85,0)" xlink:href="#as"/><use transform="matrix(0.05,0,0,0.05,51.85,0)" xlink:href="#ad"/><use transform="matrix(0.05,0,0,0.05,60.85,0)" xlink:href="#an"/><use transform="matrix(0.05,0,0,0.05,64.8,0)" xlink:href="#ae"/><use transform="matrix(0.05,0,0,0.05,74.8,0)" xlink:href="#as"/></g><g id="C"><use transform="matrix(0.05,0,0,0.05,0,0)" xlink:href="#ay"/><use transform="matrix(0.05,0,0,0.05,11,0)" xlink:href="#ai"/><use transform="matrix(0.05,0,0,0.05,21,0)" xlink:href="#ax"/><use transform="matrix(0.05,0,0,0.05,30,0)" xlink:href="#al"/><use transform="matrix(0.05,0,0,0.05,35,0)" xlink:href="#ae"/><use transform="matrix(0.05,0,0,0.05,45,0)" xlink:href="#ao"/></g><path d="M141 0L90-78 38 0H4l68-98-65-92h35l48 74 47-74h35l-64 92 68 98h-35" id="aP"/><g id="D"><use transform="matrix(0.05,0,0,0.05,0,0)" xlink:href="#aP"/><use transform="matrix(0.05,0,0,0.05,9,0)" xlink:href="#aq"/><use transform="matrix(0.05,0,0,0.05,19,0)" xlink:href="#ad"/><use transform="matrix(0.05,0,0,0.05,28,0)" xlink:href="#ag"/><use transform="matrix(0.05,0,0,0.05,33,0)" xlink:href="#aq"/><use transform="matrix(0.05,0,0,0.05,43,0)" xlink:href="#ae"/><use transform="matrix(0.05,0,0,0.05,53,0)" xlink:href="#aj"/><use transform="matrix(0.05,0,0,0.05,63,0)" xlink:href="#aI"/><use transform="matrix(0.05,0,0,0.05,73,0)" xlink:href="#ak"/><use transform="matrix(0.05,0,0,0.05,76.95,0)" xlink:href="#ai"/></g><g id="E"><use transform="matrix(0.05,0,0,0.05,0,0)" xlink:href="#ap"/><use transform="matrix(0.05,0,0,0.05,10,0)" xlink:href="#aj"/><use transform="matrix(0.05,0,0,0.05,20,0)" xlink:href="#aq"/><use transform="matrix(0.05,0,0,0.05,30,0)" xlink:href="#al"/><use transform="matrix(0.05,0,0,0.05,35,0)" xlink:href="#ag"/><use transform="matrix(0.05,0,0,0.05,40,0)" xlink:href="#ao"/><use transform="matrix(0.05,0,0,0.05,45.95,0)" xlink:href="#ai"/><use transform="matrix(0.05,0,0,0.05,55.95,0)" xlink:href="#ak"/><use transform="matrix(0.05,0,0,0.05,59.900000000000006,0)" xlink:href="#af"/><use transform="matrix(0.05,0,0,0.05,69.9,0)" xlink:href="#al"/><use transform="matrix(0.05,0,0,0.05,74.9,0)" xlink:href="#an"/><use transform="matrix(0.05,0,0,0.05,78.85000000000001,0)" xlink:href="#aM"/><use transform="matrix(0.05,0,0,0.05,87.85000000000001,0)" xlink:href="#ai"/></g><g id="F"><use transform="matrix(0.05,0,0,0.05,0,0)" xlink:href="#aF"/><use transform="matrix(0.05,0,0,0.05,12,0)" xlink:href="#al"/><use transform="matrix(0.05,0,0,0.05,17,0)" xlink:href="#af"/><use transform="matrix(0.05,0,0,0.05,27,0)" xlink:href="#as"/><use transform="matrix(0.05,0,0,0.05,37,0)" xlink:href="#aq"/><use transform="matrix(0.05,0,0,0.05,47,0)" xlink:href="#af"/><use transform="matrix(0.05,0,0,0.05,57,0)" xlink:href="#ao"/><use transform="matrix(0.05,0,0,0.05,62.95,0)" xlink:href="#aq"/></g><g id="G"><use transform="matrix(0.05,0,0,0.05,0,0)" xlink:href="#ar"/><use transform="matrix(0.05,0,0,0.05,12.950000000000001,0)" xlink:href="#as"/><use transform="matrix(0.05,0,0,0.05,22.950000000000003,0)" xlink:href="#ax"/><use transform="matrix(0.05,0,0,0.05,31.950000000000003,0)" xlink:href="#ai"/><use transform="matrix(0.05,0,0,0.05,41.95,0)" xlink:href="#ao"/><use transform="matrix(0.05,0,0,0.05,47.900000000000006,0)" xlink:href="#al"/><use transform="matrix(0.05,0,0,0.05,52.900000000000006,0)" xlink:href="#af"/><use transform="matrix(0.05,0,0,0.05,62.900000000000006,0)" xlink:href="#an"/><use transform="matrix(0.05,0,0,0.05,66.85000000000001,0)" xlink:href="#as"/><use transform="matrix(0.05,0,0,0.05,76.85000000000001,0)" xlink:href="#al"/><use transform="matrix(0.05,0,0,0.05,81.85000000000001,0)" xlink:href="#aA"/></g><path d="M101-251c68 0 85 55 85 127S166 4 100 4C33 4 14-52 14-124c0-73 17-127 87-127zm-1 229c47 0 54-49 54-102s-4-102-53-102c-51 0-55 48-55 102 0 53 5 102 54 102" id="aQ"/><g id="H"><use transform="matrix(0.05,0,0,0.05,0,0)" xlink:href="#at"/><use transform="matrix(0.05,0,0,0.05,5,0)" xlink:href="#aQ"/><use transform="matrix(0.05,0,0,0.05,15,0)" xlink:href="#aJ"/><use transform="matrix(0.05,0,0,0.05,20,0)" xlink:href="#aJ"/><use transform="matrix(0.05,0,0,0.05,25,0)" xlink:href="#au"/><use transform="matrix(0.05,0,0,0.05,35,0)" xlink:href="#av"/></g><g id="I"><use transform="matrix(0.05,0,0,0.05,0,0)" xlink:href="#ap"/><use transform="matrix(0.05,0,0,0.05,10,0)" xlink:href="#aj"/><use transform="matrix(0.05,0,0,0.05,20,0)" xlink:href="#aq"/><use transform="matrix(0.05,0,0,0.05,30,0)" xlink:href="#al"/><use transform="matrix(0.05,0,0,0.05,35,0)" xlink:href="#ag"/><use transform="matrix(0.05,0,0,0.05,40,0)" xlink:href="#aE"/><use transform="matrix(0.05,0,0,0.05,50,0)" xlink:href="#af"/><use transform="matrix(0.05,0,0,0.05,60,0)" xlink:href="#ad"/><use transform="matrix(0.05,0,0,0.05,69,0)" xlink:href="#az"/><use transform="matrix(0.05,0,0,0.05,83,0)" xlink:href="#aj"/><use transform="matrix(0.05,0,0,0.05,93,0)" xlink:href="#af"/><use transform="matrix(0.05,0,0,0.05,103,0)" xlink:href="#as"/><use transform="matrix(0.05,0,0,0.05,113,0)" xlink:href="#al"/><use transform="matrix(0.05,0,0,0.05,118,0)" xlink:href="#an"/><use transform="matrix(0.05,0,0,0.05,121.95,0)" xlink:href="#al"/><use transform="matrix(0.05,0,0,0.05,126.95,0)" xlink:href="#aA"/><use transform="matrix(0.05,0,0,0.05,135.95,0)" xlink:href="#aB"/><use transform="matrix(0.05,0,0,0.05,147.95,0)" xlink:href="#an"/><use transform="matrix(0.05,0,0,0.05,151.89999999999998,0)" xlink:href="#as"/><use transform="matrix(0.05,0,0,0.05,161.89999999999998,0)" xlink:href="#aq"/></g><path fill="#fff" d="M143 4C61 4 22-44 18-125c-5-107 100-154 193-111 17 8 29 25 37 43l-32 9c-13-25-37-40-76-40-61 0-88 39-88 99 0 61 29 100 91 101 35 0 62-11 79-27v-45h-74v-28h105v86C228-13 192 4 143 4" id="aR"/><path fill="#fff" d="M100-194c63 0 86 42 84 106H49c0 40 14 67 53 68 26 1 43-12 49-29l28 8c-11 28-37 45-77 45C44 4 14-33 15-96c1-61 26-98 85-98zm52 81c6-60-76-77-97-28-3 7-6 17-6 28h103" id="aS"/><path fill="#fff" d="M100-194c62-1 85 37 85 99 1 63-27 99-86 99S16-35 15-95c0-66 28-99 85-99zM99-20c44 1 53-31 53-75 0-43-8-75-51-75s-53 32-53 75 10 74 51 75" id="aT"/><path fill="#fff" d="M24 0v-261h32V0H24" id="aU"/><path fill="#fff" d="M177-190C167-65 218 103 67 71c-23-6-38-20-44-43l32-5c15 47 100 32 89-28v-30C133-14 115 1 83 1 29 1 15-40 15-95c0-56 16-97 71-98 29-1 48 16 59 35 1-10 0-23 2-32h30zM94-22c36 0 50-32 50-73 0-42-14-75-50-75-39 0-46 34-46 75s6 73 46 73" id="aV"/><path fill="#fff" d="M24-231v-30h32v30H24zM24 0v-190h32V0H24" id="aW"/><path fill="#fff" d="M96-169c-40 0-48 33-48 73s9 75 48 75c24 0 41-14 43-38l32 2c-6 37-31 61-74 61-59 0-76-41-82-99-10-93 101-131 147-64 4 7 5 14 7 22l-32 3c-4-21-16-35-41-35" id="aX"/><g id="J"><use transform="matrix(0.05,0,0,0.05,0,0)" xlink:href="#aR"/><use transform="matrix(0.05,0,0,0.05,14,0)" xlink:href="#aS"/><use transform="matrix(0.05,0,0,0.05,24,0)" xlink:href="#aT"/><use transform="matrix(0.05,0,0,0.05,34,0)" xlink:href="#aU"/><use transform="matrix(0.05,0,0,0.05,37.95,0)" xlink:href="#aT"/><use transform="matrix(0.05,0,0,0.05,47.95,0)" xlink:href="#aV"/><use transform="matrix(0.05,0,0,0.05,57.95,0)" xlink:href="#aW"/><use transform="matrix(0.05,0,0,0.05,61.900000000000006,0)" xlink:href="#aX"/></g><path fill="#fff" d="M140-251c81 0 123 46 123 126C263-53 228-8 163 1c7 30 30 48 69 40v23c-55 16-95-15-103-61C56-3 17-48 17-125c0-80 42-126 123-126zm0 227c63 0 89-41 89-101s-29-99-89-99c-61 0-89 39-89 99S79-25 140-24" id="aY"/><path fill="#fff" d="M84 4C-5 8 30-112 23-190h32v120c0 31 7 50 39 49 72-2 45-101 50-169h31l1 190h-30c-1-10 1-25-2-33-11 22-28 36-60 37" id="aZ"/><path fill="#fff" d="M141-36C126-15 110 5 73 4 37 3 15-17 15-53c-1-64 63-63 125-63 3-35-9-54-41-54-24 1-41 7-42 31l-33-3c5-37 33-52 76-52 45 0 72 20 72 64v82c-1 20 7 32 28 27v20c-31 9-61-2-59-35zM48-53c0 20 12 33 32 33 41-3 63-29 60-74-43 2-92-5-92 41" id="ba"/><path fill="#fff" d="M117-194c89-4 53 116 60 194h-32v-121c0-31-8-49-39-48C34-167 62-67 57 0H25l-1-190h30c1 10-1 24 2 32 11-22 29-35 61-36" id="bb"/><path fill="#fff" d="M59-47c-2 24 18 29 38 22v24C64 9 27 4 27-40v-127H5v-23h24l9-43h21v43h35v23H59v120" id="bc"/><path fill="#fff" d="M179-190L93 31C79 59 56 82 12 73V49c39 6 53-20 64-50L1-190h34L92-34l54-156h33" id="bd"/><g id="K"><use transform="matrix(0.05,0,0,0.05,0,0)" xlink:href="#aY"/><use transform="matrix(0.05,0,0,0.05,14,0)" xlink:href="#aZ"/><use transform="matrix(0.05,0,0,0.05,24,0)" xlink:href="#ba"/><use transform="matrix(0.05,0,0,0.05,34,0)" xlink:href="#bb"/><use transform="matrix(0.05,0,0,0.05,44,0)" xlink:href="#bc"/><use transform="matrix(0.05,0,0,0.05,49,0)" xlink:href="#aW"/><use transform="matrix(0.05,0,0,0.05,52.95,0)" xlink:href="#bc"/><use transform="matrix(0.05,0,0,0.05,57.95,0)" xlink:href="#bd"/></g><path fill="#fff" d="M194 0L95-120 63-95V0H30v-248h33v124l119-124h40L117-140 236 0h-42" id="be"/><path fill="#fff" d="M85-194c31 0 48 13 60 33l-1-100h32l1 261h-30c-2-10 0-23-3-31C134-8 116 4 85 4 32 4 16-35 15-94c0-66 23-100 70-100zm9 24c-40 0-46 34-46 75 0 40 6 74 45 74 42 0 51-32 51-76 0-42-9-74-50-73" id="bf"/><g id="L"><use transform="matrix(0.05,0,0,0.05,0,0)" xlink:href="#be"/><use transform="matrix(0.05,0,0,0.05,12,0)" xlink:href="#aW"/><use transform="matrix(0.05,0,0,0.05,15.949999999999998,0)" xlink:href="#bb"/><use transform="matrix(0.05,0,0,0.05,25.950000000000003,0)" xlink:href="#bf"/></g><g id="M"><use transform="matrix(0.05,0,0,0.05,0,0)" xlink:href="#aq"/><use transform="matrix(0.05,0,0,0.05,10,0)" xlink:href="#al"/><use transform="matrix(0.05,0,0,0.05,15,0)" xlink:href="#aA"/><use transform="matrix(0.05,0,0,0.05,24,0)" xlink:href="#aD"/><use transform="matrix(0.05,0,0,0.05,34,0)" xlink:href="#ai"/><use transform="matrix(0.05,0,0,0.05,44,0)" xlink:href="#ag"/></g><g id="N"><use transform="matrix(0.05,0,0,0.05,0,0)" xlink:href="#aM"/><use transform="matrix(0.05,0,0,0.05,9,0)" xlink:href="#af"/><use transform="matrix(0.05,0,0,0.05,19,0)" xlink:href="#ak"/><use transform="matrix(0.05,0,0,0.05,22.95,0)" xlink:href="#aj"/><use transform="matrix(0.05,0,0,0.05,32.95,0)" xlink:href="#ai"/></g><path fill="#fff" d="M185-189c-5-48-123-54-124 2 14 75 158 14 163 119 3 78-121 87-175 55-17-10-28-26-33-46l33-7c5 56 141 63 141-1 0-78-155-14-162-118-5-82 145-84 179-34 5 7 8 16 11 25" id="bg"/><path fill="#fff" d="M135-143c-3-34-86-38-87 0 15 53 115 12 119 90S17 21 10-45l28-5c4 36 97 45 98 0-10-56-113-15-118-90-4-57 82-63 122-42 12 7 21 19 24 35" id="bh"/><path fill="#fff" d="M210-169c-67 3-38 105-44 169h-31v-121c0-29-5-50-35-48C34-165 62-65 56 0H25l-1-190h30c1 10-1 24 2 32 10-44 99-50 107 0 11-21 27-35 58-36 85-2 47 119 55 194h-31v-121c0-29-5-49-35-48" id="bi"/><g id="O"><use transform="matrix(0.05,0,0,0.05,0,0)" xlink:href="#bg"/><use transform="matrix(0.05,0,0,0.05,12,0)" xlink:href="#bd"/><use transform="matrix(0.05,0,0,0.05,21,0)" xlink:href="#bh"/><use transform="matrix(0.05,0,0,0.05,30,0)" xlink:href="#bc"/><use transform="matrix(0.05,0,0,0.05,35,0)" xlink:href="#aS"/><use transform="matrix(0.05,0,0,0.05,45,0)" xlink:href="#bi"/></g><path fill="#fff" d="M101-234c-31-9-42 10-38 44h38v23H63V0H32v-167H5v-23h27c-7-52 17-82 69-68v24" id="bj"/><g id="P"><use transform="matrix(0.05,0,0,0.05,0,0)" xlink:href="#aT"/><use transform="matrix(0.05,0,0,0.05,10,0)" xlink:href="#bj"/></g><g id="Q"><use transform="matrix(0.05,0,0,0.05,0,0)" xlink:href="#aY"/><use transform="matrix(0.05,0,0,0.05,14,0)" xlink:href="#aZ"/><use transform="matrix(0.05,0,0,0.05,24,0)" xlink:href="#ba"/><use transform="matrix(0.05,0,0,0.05,34,0)" xlink:href="#bb"/><use transform="matrix(0.05,0,0,0.05,44,0)" xlink:href="#bc"/><use transform="matrix(0.05,0,0,0.05,49,0)" xlink:href="#aW"/><use transform="matrix(0.05,0,0,0.05,52.95,0)" xlink:href="#bc"/><use transform="matrix(0.05,0,0,0.05,57.95,0)" xlink:href="#aW"/><use transform="matrix(0.05,0,0,0.05,61.900000000000006,0)" xlink:href="#aS"/><use transform="matrix(0.05,0,0,0.05,71.9,0)" xlink:href="#bh"/></g><g id="R"><use transform="matrix(0.05,0,0,0.05,0,0)" xlink:href="#aY"/><use transform="matrix(0.05,0,0,0.05,14,0)" xlink:href="#aZ"/><use transform="matrix(0.05,0,0,0.05,24,0)" xlink:href="#ba"/><use transform="matrix(0.05,0,0,0.05,34,0)" xlink:href="#bb"/><use transform="matrix(0.05,0,0,0.05,44,0)" xlink:href="#bc"/><use transform="matrix(0.05,0,0,0.05,49,0)" xlink:href="#aW"/><use transform="matrix(0.05,0,0,0.05,52.95,0)" xlink:href="#bc"/><use transform="matrix(0.05,0,0,0.05,57.95,0)" xlink:href="#bd"/></g><g id="S"><use transform="matrix(0.05,0,0,0.05,0,0)" xlink:href="#az"/><use transform="matrix(0.05,0,0,0.05,14,0)" xlink:href="#ar"/><use transform="matrix(0.05,0,0,0.05,26.950000000000003,0)" xlink:href="#aO"/><use transform="matrix(0.05,0,0,0.05,39.900000000000006,0)" xlink:href="#aC"/></g><path d="M190 0L58-211 59 0H30v-248h39L202-35l-2-213h31V0h-41" id="bk"/><g id="T"><use transform="matrix(0.05,0,0,0.05,0,0)" xlink:href="#aF"/><use transform="matrix(0.05,0,0,0.05,12,0)" xlink:href="#aF"/><use transform="matrix(0.05,0,0,0.05,24,0)" xlink:href="#bk"/></g><path d="M0 4l72-265h28L28 4H0" id="bl"/><use transform="matrix(0.05,0,0,0.05,0,0)" xlink:href="#bl" id="U"/><path d="M205 0l-28-72H64L36 0H1l101-248h38L239 0h-34zm-38-99l-47-123c-12 45-31 82-46 123h93" id="bm"/><g id="V"><use transform="matrix(0.05,0,0,0.05,0,0)" xlink:href="#aF"/><use transform="matrix(0.05,0,0,0.05,12,0)" xlink:href="#aG"/><use transform="matrix(0.05,0,0,0.05,26,0)" xlink:href="#aF"/><use transform="matrix(0.05,0,0,0.05,38,0)" xlink:href="#bm"/></g><g id="W"><use transform="matrix(0.05,0,0,0.05,0,0)" xlink:href="#aN"/><use transform="matrix(0.05,0,0,0.05,12.950000000000001,0)" xlink:href="#ak"/><use transform="matrix(0.05,0,0,0.05,16.900000000000002,0)" xlink:href="#af"/><use transform="matrix(0.05,0,0,0.05,26.900000000000002,0)" xlink:href="#ad"/><use transform="matrix(0.05,0,0,0.05,35.900000000000006,0)" xlink:href="#ad"/></g><path fill="#fff" d="M232-93c-1 65-40 97-104 97C67 4 28-28 28-90v-158h33c8 89-33 224 67 224 102 0 64-133 71-224h33v155" id="bn"/><path fill="#fff" d="M30-248c118-7 216 8 213 122C240-48 200 0 122 0H30v-248zM63-27c89 8 146-16 146-99s-60-101-146-95v194" id="bo"/><path fill="#fff" d="M127-220V0H93v-220H8v-28h204v28h-85" id="bp"/><g id="X"><use transform="matrix(0.05,0,0,0.05,0,0)" xlink:href="#aY"/><use transform="matrix(0.05,0,0,0.05,14,0)" xlink:href="#bn"/><use transform="matrix(0.05,0,0,0.05,26.950000000000003,0)" xlink:href="#bo"/><use transform="matrix(0.05,0,0,0.05,39.900000000000006,0)" xlink:href="#bp"/></g><g id="Y"><use transform="matrix(0.05,0,0,0.05,0,0)" xlink:href="#aR"/><use transform="matrix(0.05,0,0,0.05,14,0)" xlink:href="#aS"/><use transform="matrix(0.05,0,0,0.05,24,0)" xlink:href="#aT"/><use transform="matrix(0.05,0,0,0.05,34,0)" xlink:href="#bh"/><use transform="matrix(0.05,0,0,0.05,43,0)" xlink:href="#aX"/><use transform="matrix(0.05,0,0,0.05,52,0)" xlink:href="#aS"/><use transform="matrix(0.05,0,0,0.05,62,0)" xlink:href="#aW"/><use transform="matrix(0.05,0,0,0.05,65.95,0)" xlink:href="#aX"/><use transform="matrix(0.05,0,0,0.05,74.95,0)" xlink:href="#bb"/><use transform="matrix(0.05,0,0,0.05,84.95,0)" xlink:href="#aS"/></g><path fill="#fff" d="M212-179c-10-28-35-45-73-45-59 0-87 40-87 99 0 60 29 101 89 101 43 0 62-24 78-52l27 14C228-24 195 4 139 4 59 4 22-46 18-125c-6-104 99-153 187-111 19 9 31 26 39 46" id="bq"/><g id="Z"><use transform="matrix(0.05,0,0,0.05,0,0)" xlink:href="#bq"/><use transform="matrix(0.05,0,0,0.05,12.950000000000001,0)" xlink:href="#aU"/><use transform="matrix(0.05,0,0,0.05,16.900000000000002,0)" xlink:href="#ba"/><use transform="matrix(0.05,0,0,0.05,26.900000000000002,0)" xlink:href="#bh"/><use transform="matrix(0.05,0,0,0.05,35.900000000000006,0)" xlink:href="#bh"/></g><g id="aa"><use transform="matrix(0.05,0,0,0.05,0,0)" xlink:href="#ao"/><use transform="matrix(0.05,0,0,0.05,5.95,0)" xlink:href="#aq"/><use transform="matrix(0.05,0,0,0.05,15.949999999999998,0)" xlink:href="#aH"/><use transform="matrix(0.05,0,0,0.05,20.95,0)" xlink:href="#ag"/><use transform="matrix(0.05,0,0,0.05,25.950000000000003,0)" xlink:href="#aD"/><use transform="matrix(0.05,0,0,0.05,35.95,0)" xlink:href="#ao"/><use transform="matrix(0.05,0,0,0.05,41.900000000000006,0)" xlink:href="#ae"/><use transform="matrix(0.05,0,0,0.05,51.900000000000006,0)" xlink:href="#aD"/><use transform="matrix(0.05,0,0,0.05,61.900000000000006,0)" xlink:href="#ai"/><use transform="matrix(0.05,0,0,0.05,71.9,0)" xlink:href="#ao"/><use transform="matrix(0.05,0,0,0.05,77.85000000000001,0)" xlink:href="#al"/><use transform="matrix(0.05,0,0,0.05,82.85000000000001,0)" xlink:href="#aA"/></g><g id="ab"><use transform="matrix(0.05,0,0,0.05,0,0)" xlink:href="#ao"/><use transform="matrix(0.05,0,0,0.05,5.95,0)" xlink:href="#aq"/><use transform="matrix(0.05,0,0,0.05,15.949999999999998,0)" xlink:href="#aH"/><use transform="matrix(0.05,0,0,0.05,20.95,0)" xlink:href="#ad"/><use transform="matrix(0.05,0,0,0.05,29.950000000000003,0)" xlink:href="#ag"/><use transform="matrix(0.05,0,0,0.05,34.95,0)" xlink:href="#ad"/><use transform="matrix(0.05,0,0,0.05,43.95,0)" xlink:href="#aj"/><use transform="matrix(0.05,0,0,0.05,53.95,0)" xlink:href="#aI"/><use transform="matrix(0.05,0,0,0.05,63.95,0)" xlink:href="#aN"/><use transform="matrix(0.05,0,0,0.05,76.9,0)" xlink:href="#ak"/><use transform="matrix(0.05,0,0,0.05,80.85000000000001,0)" xlink:href="#af"/><use transform="matrix(0.05,0,0,0.05,90.85000000000001,0)" xlink:href="#ad"/><use transform="matrix(0.05,0,0,0.05,99.85000000000001,0)" xlink:href="#ad"/><use transform="matrix(0.05,0,0,0.05,108.85000000000001,0)" xlink:href="#aG"/><use transform="matrix(0.05,0,0,0.05,122.85000000000001,0)" xlink:href="#aH"/></g><path d="M195 0l-88-114-31 24V0H24v-248h52v113l112-113h60L142-143 257 0h-62" id="br"/><path d="M185-48c-13 30-37 53-82 52C43 2 14-33 14-96s30-98 90-98c62 0 83 45 84 108H66c0 31 8 55 39 56 18 0 30-7 34-22zm-45-69c5-46-57-63-70-21-2 6-4 13-4 21h74" id="bs"/><path d="M123 10C108 53 80 86 19 72V37c35 8 53-11 59-39L3-190h52l48 148c12-52 28-100 44-148h51" id="bt"/><g id="ac"><use transform="matrix(0.05,0,0,0.05,0,0)" xlink:href="#br"/><use transform="matrix(0.05,0,0,0.05,12.950000000000001,0)" xlink:href="#bs"/><use transform="matrix(0.05,0,0,0.05,22.950000000000003,0)" xlink:href="#bt"/><path d="M-.9.97h34.75v1.9H-.9z"/></g></defs></g></svg>